# xmcd
#
# Track frame offsets:
#	150
#	9140
#	26475
#	44955
#	60240
#	80137
#	97032
#	115492
#	130707
#	150815
#
# Disc length: 2223 seconds
#
# Revision: 1
# Processed by: cddbd v1.5.1PL0 Copyright (c) Steve Scherf et al.
# Submitted via: CDex 1.50Beta5
#
DISCID=7408ad0a
DTITLE=CCガールズ - Comin
DYEAR=1900
DGENRE=Rock
TTITLE0=INTRODUCTION
TTITLE1=NO天気な恋の島
TTITLE2=CCガールズ/Olestes
TTITLE3=CCガールズ/ブラインド・コンプレックス
TTITLE4=CCガールズ/お熱い夜にご用心
TTITLE5=CCガールズ/Hold Me
TTITLE6=CCガールズ/OLE MACHO
TTITLE7=CCガールズ/24時間
TTITLE8=CCガールズ/Call me
TTITLE9=CCガールズ/琥珀の生命
EXTD=
EXTT0=
EXTT1=
EXTT2=
EXTT3=
EXTT4=
EXTT5=
EXTT6=
EXTT7=
EXTT8=
EXTT9=
PLAYORDER=
